<svg width="11" height="13" viewBox="0 0 11 13" fill="none" xmlns="http://www.w3.org/2000/svg">
<path fill-rule="evenodd" clip-rule="evenodd" d="M3.42085 0.364307C3.08954 0.146614 2.70444 0.0215821 2.30663 0.00255188C1.90882 -0.0164783 1.51323 0.0712061 1.16206 0.256251C0.810894 0.441296 0.517319 0.71676 0.312661 1.05325C0.108003 1.38974 -5.95816e-05 1.77464 2.46452e-08 2.16688V10.8331C-5.95816e-05 11.2254 0.108003 11.6103 0.312661 11.9467C0.517319 12.2832 0.810894 12.5587 1.16206 12.7437C1.51323 12.9288 1.90882 13.0165 2.30663 12.9974C2.70444 12.9784 3.08954 12.8534 3.42085 12.6357L10.0206 8.30258C10.3218 8.10472 10.5689 7.83667 10.7397 7.52222C10.9106 7.20777 11 6.85664 11 6.5C11 6.14336 10.9106 5.79223 10.7397 5.47778C10.5689 5.16333 10.3218 4.89528 10.0206 4.69742L3.42085 0.364307Z" fill="#707070"/>
</svg>
